<?xml version="1.0" encoding="UTF-8" standalone="no"?>
<!-- Created with Inkscape (http://www.inkscape.org/) -->

<svg
   xmlns:dc="http://purl.org/dc/elements/1.1/"
   xmlns:cc="http://creativecommons.org/ns#"
   xmlns:rdf="http://www.w3.org/1999/02/22-rdf-syntax-ns#"
   xmlns:svg="http://www.w3.org/2000/svg"
   xmlns="http://www.w3.org/2000/svg"
   xmlns:xlink="http://www.w3.org/1999/xlink"
   xmlns:sodipodi="http://sodipodi.sourceforge.net/DTD/sodipodi-0.dtd"
   xmlns:inkscape="http://www.inkscape.org/namespaces/inkscape"
   width="144"
   height="144"
   id="svg2"
   version="1.1"
   inkscape:version="0.48.4 r9939"
   sodipodi:docname="favicon.svg">
  <defs
     id="defs4" />
  <sodipodi:namedview
     id="base"
     pagecolor="#ffffff"
     bordercolor="#666666"
     borderopacity="1.0"
     inkscape:pageopacity="0.0"
     inkscape:pageshadow="2"
     inkscape:zoom="3.959798"
     inkscape:cx="35.88882"
     inkscape:cy="42.747984"
     inkscape:document-units="px"
     inkscape:current-layer="layer1"
     showgrid="false"
     inkscape:window-width="1920"
     inkscape:window-height="1033"
     inkscape:window-x="1680"
     inkscape:window-y="27"
     inkscape:window-maximized="1"
     showguides="true"
     inkscape:guide-bbox="true">
    <inkscape:grid
       type="xygrid"
       id="grid3014"
       empspacing="5"
       visible="true"
       enabled="true"
       snapvisiblegridlinesonly="true" />
  </sodipodi:namedview>
  <metadata
     id="metadata7">
    <rdf:RDF>
      <cc:Work
         rdf:about="">
        <dc:format>image/svg+xml</dc:format>
        <dc:type
           rdf:resource="http://purl.org/dc/dcmitype/StillImage" />
        <dc:title></dc:title>
      </cc:Work>
    </rdf:RDF>
  </metadata>
  <g
     inkscape:label="Layer 1"
     inkscape:groupmode="layer"
     id="layer1"
     transform="translate(0,-908.36218)">
    <path
       style="fill:#cc4756;fill-opacity:1;stroke:none"
       d="m -88.578263,916.103 c -11.512667,0.25794 -22.633977,6.32976 -28.812497,17.03126 -9.4149,16.3071 -3.80708,37.1476 12.5,46.5625 16.307075,9.4148 37.1476,3.8383 46.562496,-12.4688 l -29.531249,-17.0312 29.531249,-17.0625 c -2.992405,-5.183 -7.285754,-9.4763 -12.46875,-12.46876 -5.605557,-3.23637 -11.750805,-4.69761 -17.781249,-4.5625 z m -1.75,9.03126 c 2.662802,0 4.8125,2.1809 4.8125,4.8437 0,2.6628 -2.149698,4.8125 -4.8125,4.8125 -2.662802,0 -4.812501,-2.1497 -4.812501,-4.8125 0,-2.6628 2.149699,-4.8437 4.812501,-4.8437 z"
       id="path3018"
       inkscape:connector-curvature="0"
       inkscape:tile-cx="-36.605552"
       inkscape:tile-cy="49.397621"
       inkscape:tile-w="63.630746"
       inkscape:tile-h="68.178447"
       inkscape:tile-x0="-68.420925"
       inkscape:tile-y0="15.308397" />
    <path
       sodipodi:type="arc"
       style="fill:#cc4756;fill-opacity:1;stroke:none"
       id="path3056"
       sodipodi:cx="93.186569"
       sodipodi:cy="51.318504"
       sodipodi:rx="10.354064"
       sodipodi:ry="10.354064"
       d="m 103.54063,51.318504 a 10.354064,10.354064 0 1 1 -20.708125,0 10.354064,10.354064 0 1 1 20.708125,0 z"
       transform="matrix(0.90124519,0,0,0.90124519,-12.068552,936.58396)" />
    <g
       id="g3572"
       transform="matrix(0.960215,0,0,0.960215,96.358012,-27.996223)">
      <use
         height="144"
         width="144"
         id="use3534"
         transform="matrix(0.71623227,0.22741586,-0.22741586,0.71623227,206.61157,377.01394)"
         xlink:href="#path3018"
         inkscape:tiled-clone-of="#path3018"
         y="0"
         x="0" />
      <use
         height="144"
         width="144"
         id="use3536"
         transform="matrix(0,0.75146965,-0.75146965,0,688.70509,1070.0671)"
         xlink:href="#path3018"
         inkscape:tiled-clone-of="#path3018"
         y="0"
         x="0" />
      <use
         height="144"
         width="144"
         id="use3538"
         transform="matrix(-0.71638938,0.22692044,0.22692044,0.71638938,-257.06536,376.82083)"
         xlink:href="#path3018"
         inkscape:tiled-clone-of="#path3018"
         y="0"
         x="0" />
      <use
         height="144"
         width="144"
         transform="matrix(0.47067968,-0.5858048,0.5858048,0.47067968,-569.64188,593.75008)"
         id="use3532"
         xlink:href="#path3018"
         inkscape:tiled-clone-of="#path3018"
         y="0"
         x="0" />
      <use
         height="144"
         width="144"
         id="use3540"
         transform="matrix(-0.42525725,-0.61956671,-0.61956671,0.42525725,555.05402,633.94306)"
         xlink:href="#path3018"
         inkscape:tiled-clone-of="#path3018"
         y="0"
         x="0" />
    </g>
  </g>
</svg>
